HIERARCHY
ROOT Hips
{
 OFFSET 0.000000 0.000000 0.000000
 CHANNELS 6 Xposition Yposition Zposition Yrotation Xrotation Zrotation
 JOINT Chest
 {
  OFFSET 0.000000 10.080317 -0.001081
  CHANNELS 3 Yrotation Xrotation Zrotation
  JOINT Chest2
  {
   OFFSET 0.000000 11.096852 0.001963
   CHANNELS 3 Yrotation Xrotation Zrotation
   JOINT Chest3
   {
    OFFSET 0.000000 10.026525 0.000000
    CHANNELS 3 Yrotation Xrotation Zrotation
    JOINT Chest4
    {
     OFFSET 0.000000 10.026525 0.000000
     CHANNELS 3 Yrotation Xrotation Zrotation
     JOINT Neck
     {
      OFFSET 0.000000 14.108171 0.000000
      CHANNELS 3 Yrotation Xrotation Zrotation
      JOINT Head
      {
       OFFSET 0.000000 9.333493 0.004668
       CHANNELS 3 Yrotation Xrotation Zrotation
       End Site
       {
        OFFSET 0.000000 17.851786 0.002438
       }
      }
     }
     JOINT RightCollar
     {
      OFFSET -3.071622 7.873185 0.000000
      CHANNELS 3 Yrotation Xrotation Zrotation
      JOINT RightShoulder
      {
       OFFSET -14.378659 0.000000 0.000000
       CHANNELS 3 Yrotation Xrotation Zrotation
       JOINT RightElbow
       {
        OFFSET -30.778728 0.000000 0.000000
        CHANNELS 3 Yrotation Xrotation Zrotation
        JOINT RightWrist
        {
         OFFSET -25.164217 0.000000 0.000000
         CHANNELS 3 Yrotation Xrotation Zrotation
         End Site
         {
          OFFSET -18.796788 0.000000 0.000000
         }
        }
       }
      }
     }
     JOINT LeftCollar
     {
      OFFSET 3.071622 7.873185 0.000000
      CHANNELS 3 Yrotation Xrotation Zrotation
      JOINT LeftShoulder
      {
       OFFSET 14.378659 0.000000 0.000000
       CHANNELS 3 Yrotation Xrotation Zrotation
       JOINT LeftElbow
       {
        OFFSET 30.778728 0.000000 0.000000
        CHANNELS 3 Yrotation Xrotation Zrotation
        JOINT LeftWrist
        {
         OFFSET 25.164217 0.000000 0.000000
         CHANNELS 3 Yrotation Xrotation Zrotation
         End Site
         {
          OFFSET 18.796788 0.000000 0.000000
         }
        }
       }
      }
     }
    }
   }
  }
 }
 JOINT RightHip
 {
  OFFSET -8.194923 0.005295 0.000540
  CHANNELS 3 Yrotation Xrotation Zrotation
  JOINT RightKnee
  {
   OFFSET 0.000000 -42.473320 -0.000511
   CHANNELS 3 Yrotation Xrotation Zrotation
   JOINT RightAnkle
   {
    OFFSET 0.000000 -41.474259 -0.000865
    CHANNELS 3 Yrotation Xrotation Zrotation
    JOINT RightToe
    {
     OFFSET 0.000000 -7.354994 16.712725
     CHANNELS 3 Yrotation Xrotation Zrotation
     End Site
     {
      OFFSET 0.000000 -1.553903 6.764158
     }
    }
   }
  }
 }
 JOINT LeftHip
 {
  OFFSET 8.194923 0.005295 0.000540
  CHANNELS 3 Yrotation Xrotation Zrotation
  JOINT LeftKnee
  {
   OFFSET 0.000000 -42.473320 -0.000511
   CHANNELS 3 Yrotation Xrotation Zrotation
   JOINT LeftAnkle
   {
    OFFSET 0.000000 -41.474259 -0.000865
    CHANNELS 3 Yrotation Xrotation Zrotation
    JOINT LeftToe
    {
     OFFSET 0.000000 -7.354994 16.712725
     CHANNELS 3 Yrotation Xrotation Zrotation
     End Site
     {
      OFFSET 0.000000 -1.553903 6.764158
     }
    }
   }
  }
 }
}
MOTION
Frames: 5
Frame Time: 0.016667
-238.424243 92.159605 62.199621 11.880043 -7.206057 -2.485988 -0.595889 4.394553 -1.292405 -0.225149 1.921023 -0.466043 -0.225149 1.921023 -0.466043 -0.167381 1.440940 -0.348792 -16.526555 20.363413 5.666724 -31.596667 4.704551 14.784054 6.823914 -17.009889 -7.740120 17.160144 -39.099292 -20.119364 46.678144 -8.167767 -4.967267 -0.180349 0.543174 -16.122481 -23.457501 -29.841143 12.328467 -69.753067 -63.010700 -6.670695 -52.373831 -4.615362 -27.291972 2.269062 6.212739 16.568922 -17.720643 11.658044 -6.234319 -1.883675 -2.950976 1.117056 -2.164515 -1.447738 3.985041 -0.058668 0.335442 0.046894 3.131077 11.879053 10.731147 -0.443163 0.186733 1.467047 0.314881 -4.612142 -7.841139 0.136507 0.653441 0.159086
-238.400748 92.183577 62.178088 11.391057 -7.147794 -2.523456 -0.863141 4.412052 -1.304511 -0.338361 1.936681 -0.475517 -0.338361 1.936681 -0.475517 -0.252239 1.452776 -0.355532 -16.141223 20.325225 5.663663 -30.908600 4.535733 14.700986 6.740489 -17.098548 -7.109368 13.919031 -39.261850 -19.273158 45.560008 -8.198549 -5.055222 -0.236442 0.619540 -15.991277 -23.742812 -29.778892 12.083828 -67.299419 -63.132996 -12.237781 -53.410515 -3.610444 -28.353982 2.809266 6.548735 15.864558 -17.590234 11.511668 -6.192303 -1.623725 -2.949977 1.124778 -2.080420 -1.381176 3.967033 -0.057758 0.279753 0.044693 3.175707 11.849605 10.738714 -0.160098 0.288797 1.430599 0.393651 -4.559344 -7.807891 0.114024 0.531476 0.139829
-238.366579 92.206310 62.145375 10.911654 -7.125154 -2.517901 -1.167828 4.433539 -1.348070 -0.468304 1.952104 -0.498755 -0.468304 1.952104 -0.498755 -0.349601 1.464462 -0.372534 -15.745342 20.301026 5.660748 -30.198731 4.390905 14.610863 6.650064 -17.127245 -6.309753 10.972184 -39.538328 -18.217112 44.312835 -8.203559 -5.102741 -0.324443 0.778524 -15.807008 -23.822806 -29.428981 11.649839 -64.738339 -63.116863 -17.547804 -54.121102 -2.870545 -29.603350 3.049637 6.632688 15.238499 -17.469830 11.387377 -6.213810 -1.424936 -2.961763 1.144668 -1.954721 -1.303332 3.953404 -0.055311 0.233557 0.041426 3.285509 11.834583 10.703921 0.082237 0.399512 1.408653 0.437422 -4.534008 -7.784205 0.099372 0.438857 0.131511
-238.346277 92.230131 62.111997 10.382232 -7.145341 -2.531427 -1.514959 4.494267 -1.398900 -0.615825 1.986277 -0.519361 -0.615825 1.986277 -0.519361 -0.460134 1.490234 -0.387480 -15.324324 20.267205 5.661455 -29.446002 4.224857 14.522263 6.519922 -17.183611 -5.451960 8.217738 -40.107804 -16.832029 42.973709 -8.285552 -4.962564 -0.404416 0.900383 -15.657030 -23.758578 -28.900064 11.089225 -62.109240 -63.076824 -22.510784 -54.467774 -2.436462 -31.128321 3.285965 6.650530 14.911098 -17.328553 11.303280 -6.225474 -1.189528 -2.979473 1.176357 -1.819287 -1.200386 3.932509 -0.058665 0.173288 0.031856 3.533980 11.835524 10.730437 0.317014 0.530815 1.370826 0.434448 -4.521066 -7.765530 0.082483 0.347756 0.125479
-238.328610 92.251454 62.074753 9.882975 -7.203024 -2.568442 -1.878439 4.572755 -1.431049 -0.770704 2.027702 -0.537446 -0.770704 2.027702 -0.537446 -0.576184 1.521458 -0.400485 -14.960268 20.231887 5.653781 -28.793791 4.069141 14.431056 6.391819 -17.246623 -4.535649 5.487249 -40.941266 -15.261681 41.461397 -8.596380 -4.534714 -0.446936 0.971677 -15.658713 -23.672637 -28.179537 10.551665 -59.122113 -63.022164 -27.408967 -54.624234 -2.077768 -32.886455 3.385074 6.579442 14.675056 -17.170365 11.248033 -6.201901 -0.944858 -2.957926 1.174314 -1.732524 -1.131444 3.930286 -0.058625 0.127973 0.020185 3.944139 11.846623 10.822897 0.401583 0.636680 1.326642 0.417994 -4.483024 -7.752576 0.067435 0.250072 0.124090
